<?xml version="1.0" encoding="UTF-8"?><svg version="1.1" id="Layer_1" xmlns="http://www.w3.org/2000/svg" xmlns:xlink="http://www.w3.org/1999/xlink" x="0px" y="0px" viewBox="0 0 1000 1000" enable-background="new 0 0 1000 1000" xml:space="preserve" width="1000px" height="1000px">
<path fill="#05456B" d="M672.631,74.571h-160.5c-10.93-0.013-19.787-8.87-19.8-19.8V0.3h-10v54.471
	c0.018,16.451,13.349,29.782,29.8,29.8h160.5c10.935-0.002,19.801,8.862,19.803,19.797s-8.862,19.801-19.797,19.803
	c-0.002,0-0.004,0-0.006,0h-397.5c-16.458-0.003-29.802,13.337-29.805,29.795c-0.003,16.458,13.337,29.802,29.795,29.805
	c0.003,0,0.006,0,0.01,0h187.5c10.93,0.012,19.788,8.87,19.8,19.8v51.174h-15.292v10.115h-6.545v10.728h6.545v9.5h-6.545v10.728
	h6.545v9.5h-6.545v10.728h6.545v8.456h39.74v-8.451h6.545v-10.731h-6.545v-9.5h6.545v-10.729h-6.545v-9.5h6.545V264.86h-6.545
	v-10.115h-14.448v-51.174c-0.019-16.45-13.35-29.781-29.8-29.8h-187.5c-10.935,0-19.8-8.865-19.8-19.8s8.865-19.8,19.8-19.8l0,0
	h397.5c16.458,0.003,29.802-13.337,29.805-29.795c0.003-16.458-13.337-29.802-29.795-29.805
	C672.637,74.571,672.634,74.571,672.631,74.571z"/>
<path fill="#05456B" d="M824.969,517.187C775.524,424.622,631,383.135,500,383.134l0,0c-130.994,0-275.521,41.488-324.966,134.053
	c-46.144,86.386,9.769,207.562,80.161,251.238c44.354,27.52,79.349,15.657,98.745-31.27c16.904-40.904,82.93-63.545,146.06-63.545
	s129.156,22.641,146.063,63.545c19.4,46.927,54.391,58.79,98.745,31.27C815.2,724.749,871.113,603.573,824.969,517.187z"/>
<path fill="#EF4923" d="M824.969,449.766C775.524,357.2,631,315.715,500,315.714l0,0c-131,0.001-275.524,41.486-324.969,134.052
	C128.887,536.153,184.8,657.329,255.192,701c44.354,27.52,79.349,15.658,98.745-31.269c16.907-40.9,82.933-63.545,146.063-63.546
	s129.156,22.642,146.063,63.546c19.4,46.927,54.391,58.789,98.745,31.269C815.2,657.329,871.113,536.153,824.969,449.766z"/>
<path fill="#EF4923" d="M824.969,449.766C775.524,357.2,631,315.715,500,315.714l0,0c-131,0.001-275.524,41.486-324.969,134.052
	C128.887,536.153,184.8,657.329,255.192,701c44.354,27.52,79.349,15.658,98.745-31.269c16.907-40.9,82.933-63.545,146.063-63.546
	s129.156,22.642,146.063,63.546c19.4,46.927,54.391,58.789,98.745,31.269C815.2,657.329,871.113,536.153,824.969,449.766z"/>
<path fill="#EF4923" d="M824.969,449.766C775.524,357.2,631,315.715,500,315.714l0,0c-131,0.001-275.524,41.486-324.969,134.052
	C128.887,536.153,184.8,657.329,255.192,701c44.354,27.52,79.349,15.658,98.745-31.269c16.907-40.9,82.933-63.545,146.063-63.546
	s129.156,22.642,146.063,63.546c19.4,46.927,54.391,58.789,98.745,31.269C815.2,657.329,871.113,536.153,824.969,449.766z"/>
<path fill="#EE4823" stroke="#FFFFFF" stroke-miterlimit="10" d="M824.969,449.766C775.524,357.2,631,315.715,500,315.714l0,0
	c-131,0.001-275.524,41.486-324.969,134.052C128.887,536.153,184.8,657.329,255.192,701c44.354,27.52,79.349,15.658,98.745-31.269
	c16.907-40.9,82.933-63.545,146.063-63.546s129.156,22.642,146.063,63.546c19.4,46.927,54.391,58.789,98.745,31.269
	C815.2,657.329,871.113,536.153,824.969,449.766z"/>
<path fill="#EE4823" d="M824.969,449.766C775.524,357.2,631,315.715,500,315.714l0,0c-131,0.001-275.524,41.486-324.969,134.052
	C128.887,536.153,184.8,657.329,255.192,701c44.354,27.52,79.349,15.658,98.745-31.269c16.907-40.9,82.933-63.545,146.063-63.546
	s129.156,22.642,146.063,63.546c19.4,46.927,54.391,58.789,98.745,31.269C815.2,657.329,871.113,536.153,824.969,449.766z"/>
<path fill="#DE1E26" d="M609.195,407.954l49.316-19.721c7.592-3.036,16.208,0.657,19.244,8.249l0,0
	c3.036,7.592-0.658,16.207-8.25,19.243l-49.316,19.721c-7.592,3.036-16.208-0.657-19.244-8.249l0,0
	C597.91,419.606,601.603,410.99,609.195,407.954z"/>
<circle fill="#DE1E26" cx="304.212" cy="497.781" r="108.095"/>
<path fill="#F48551" d="M500,337.935L500,337.935c124.152,0,259.719,35,325.152,112.2c-0.064-0.122-0.123-0.245-0.187-0.366
	C775.524,357.2,631,315.715,500,315.714l0,0c-131,0.001-275.524,41.486-324.969,134.052c-0.064,0.121-0.123,0.244-0.187,0.366
	C240.277,372.935,375.844,337.937,500,337.935z"/>
<path fill="#DE1E26" d="M826.292,452.347c3.121,31.654,7.994,69.209-48.286,97.693c-41.749,21.129-73,28.152-96.58,42.83
	c-53.477,33.3-81.961,17.564-121.825-31.814c-16.858,0-140.452,1.152-162.784,0c-43.993,81.321-138.832,69.6-179.237,27.606
	c-43.2-44.9-48.313-108-43.872-136.315C130.012,538.55,185.5,657.761,255.192,701c44.354,27.52,79.349,15.658,98.745-31.269
	c16.907-40.9,82.933-63.545,146.063-63.546s129.156,22.642,146.063,63.546c19.4,46.927,54.391,58.789,98.745,31.269
	C814.5,657.761,869.988,538.55,826.292,452.347z"/>
<path fill="#282522" d="M500,327.714L500,327.714c124.738,0,261.343,36.39,322.077,116.912
	C770.105,355.668,628.544,315.715,500,315.714l0,0c-128.541,0-270.1,39.954-322.078,128.912
	C238.653,364.1,375.258,327.715,500,327.714z"/>
<g>
	<path fill="#282522" d="M298.692,718.634c-13.801,0-28.896-5.042-45.082-15.085c-35.965-22.312-67.747-63.852-85.018-111.117
		c-19.166-52.453-17.818-103.621,3.792-144.079c23.239-43.507,69.402-79.17,133.497-103.134
		c56.06-20.96,124.999-32.504,194.118-32.504c69.119,0,138.059,11.544,194.118,32.504c64.095,23.964,110.258,59.627,133.497,103.134
		c21.61,40.458,22.958,91.626,3.792,144.079c-17.271,47.266-49.053,88.805-85.018,111.117
		c-22.751,14.115-43.349,18.353-61.221,12.593c-17.734-5.714-31.824-20.943-41.879-45.264c-7.641-18.488-26.333-34.214-54.055-45.48
		c-25.729-10.455-57.419-16.213-89.235-16.213c-31.815,0.001-63.507,5.759-89.235,16.216
		c-27.722,11.266-46.414,26.991-54.055,45.478c-10.052,24.319-24.141,39.548-41.874,45.264
		C309.677,717.804,304.291,718.634,298.692,718.634z M500,318.714c-68.419,0-136.612,11.409-192.017,32.125
		c-62.706,23.445-107.765,58.142-130.306,100.341c-20.795,38.932-22.021,88.365-3.449,139.192
		c16.825,46.047,47.683,86.45,82.545,108.079c21.186,13.144,40.1,17.176,56.221,11.979c15.98-5.15,28.822-19.229,38.17-41.845
		c18.574-44.934,90.172-65.4,148.835-65.401c58.664-0.001,130.263,20.465,148.835,65.401c9.351,22.617,22.194,36.696,38.174,41.846
		c16.118,5.191,35.034,1.163,56.217-11.98c34.863-21.629,65.721-62.032,82.546-108.079c18.572-50.827,17.347-100.26-3.449-139.192
		c-22.54-42.199-67.6-76.896-130.305-100.341C636.612,330.123,568.419,318.714,500,318.714z"/>
</g>
<circle fill="#DE1E26" cx="303.057" cy="506.62" r="106.708"/>
<path fill="#F48551" d="M298.275,407.085c58.945,0.012,106.72,47.807,106.708,106.752c-0.004,19.527-5.365,38.68-15.5,55.371
	c34.575-47.73,23.911-114.451-23.818-149.026S251.213,396.27,216.638,444c-1.693,2.337-3.29,4.742-4.788,7.208
	C231.902,423.476,264.053,407.061,298.275,407.085z"/>
<g>
	<path fill="#DE1E26" d="M385.249,376.623c-2.797,0-5.3-1.966-5.875-4.813c-0.656-3.248,1.445-6.413,4.693-7.069
		c37.897-7.655,76.718-11.536,115.383-11.536c0.329,0,0.652,0.001,0.982,0c36.629,0,73.449,3.475,109.439,10.33
		c3.255,0.62,5.391,3.762,4.771,7.017c-0.62,3.255-3.759,5.391-7.018,4.771c-35.249-6.714-71.318-10.118-107.203-10.118
		c-0.322,0-0.641-0.001-0.962,0c-37.881,0-75.897,3.801-113.017,11.299C386.042,376.584,385.642,376.623,385.249,376.623z"/>
</g>
<circle fill="#EE4823" cx="303.057" cy="506.62" r="85.153"/>
<circle fill="#282522" cx="303.057" cy="506.62" r="65.689"/>
<g>
	<path fill="#282522" d="M303.057,575.309c-37.875,0-68.689-30.813-68.689-68.688s30.814-68.689,68.689-68.689
		s68.689,30.814,68.689,68.689S340.932,575.309,303.057,575.309z M303.057,443.931c-34.567,0-62.689,28.122-62.689,62.689
		c0,34.566,28.122,62.688,62.689,62.688s62.689-28.122,62.689-62.688C365.746,472.053,337.624,443.931,303.057,443.931z"/>
</g>
<path fill="#0D1622" d="M317.049,455.005c0.01-5.194-3.969-9.526-9.146-9.956c-1.6-0.128-3.215-0.193-4.846-0.194
	s-3.246,0.063-4.845,0.193c-5.176,0.431-9.156,4.763-9.146,9.957v16.806c0,11.497-9.32,20.817-20.817,20.817h-16.806
	c-5.194-0.01-9.526,3.97-9.957,9.146c-0.127,1.6-0.191,3.215-0.193,4.845c-0.002,1.63,0.062,3.245,0.193,4.846
	c0.431,5.176,4.763,9.156,9.957,9.146h16.806c11.497,0,20.817,9.32,20.817,20.817l0,0v16.806c-0.01,5.194,3.97,9.526,9.146,9.957
	c1.6,0.127,3.215,0.191,4.845,0.193c1.63,0.002,3.245-0.062,4.846-0.193c5.176-0.431,9.156-4.763,9.146-9.957v-16.806
	c0-11.497,9.32-20.817,20.817-20.817l0,0h16.806c5.194,0.01,9.526-3.969,9.956-9.146c0.128-1.6,0.192-3.215,0.193-4.846
	s-0.064-3.246-0.193-4.845c-0.43-5.177-4.762-9.156-9.956-9.146h-16.806c-11.497,0-20.817-9.32-20.817-20.817V455.005z"/>
<g>
	<path fill="#282522" d="M303.057,616.328c-60.493,0-109.708-49.215-109.708-109.708s49.215-109.708,109.708-109.708
		s109.708,49.215,109.708,109.708S363.55,616.328,303.057,616.328z M303.057,402.912c-57.185,0-103.708,46.523-103.708,103.708
		s46.523,103.708,103.708,103.708s103.708-46.523,103.708-103.708S360.242,402.912,303.057,402.912z"/>
</g>
<circle fill="#EE4823" cx="303.057" cy="506.62" r="20.826"/>
<g>
	<path fill="#282522" d="M292.229,514.521c-0.708,0-1.395-0.377-1.758-1.042c-3.785-6.938-1.219-15.662,5.719-19.446
		c2.099-1.145,4.472-1.75,6.862-1.75c0.002,0,0.004,0,0.007,0c1.104,0,2,0.896,1.999,2.001c0,1.104-0.896,1.999-2,1.999
		c-0.001,0-0.004,0-0.006,0c-1.723,0-3.433,0.436-4.947,1.262c-5.001,2.729-6.851,9.018-4.123,14.019
		c0.529,0.97,0.171,2.185-0.798,2.714C292.881,514.443,292.552,514.521,292.229,514.521z"/>
</g>
<path fill="#DE1E26" d="M319.833,494.316c4.444,10.601-0.548,22.797-11.149,27.241c-8.881,3.722-19.155,0.867-24.842-6.904
	c4.419,10.615,16.607,15.637,27.222,11.218c10.615-4.419,15.637-16.607,11.218-27.222
	C321.642,497.112,320.82,495.657,319.833,494.316z"/>
<circle fill="#F48551" cx="370.047" cy="439.636" r="2.137"/>
<circle fill="#F48551" cx="236.067" cy="573.616" r="2.137"/>
<circle fill="#F48551" cx="370.047" cy="573.616" r="2.137"/>
<circle fill="#F48551" cx="236.067" cy="439.636" r="2.137"/>
<path fill="#DE1E26" d="M809.369,514.238c20.02-27.323,10.118-73.672-25.3-86.636c-38.033-13.923-92.14,1.624-123.764,17.07
	c-30.7,14.994-89.032,44.587-99.782,87.273c-9.183,36.463,19.594,70.5,53.343,73.384c31.9,2.726,47.153-19.868,106.993-44.8
	C748.238,549.128,790.444,540.067,809.369,514.238z"/>
<path fill="#F48551" d="M658.705,453.5c31.625-15.446,85.732-30.993,123.765-17.07c25.419,9.306,37.692,35.811,35.192,60.136
	c6.909-26.382-5.047-58.512-33.588-68.96c-38.033-13.923-92.14,1.624-123.764,17.07c-30.7,14.994-89.032,44.587-99.782,87.273
	c-0.665,2.665-1.136,5.375-1.411,8.108C570.336,497.754,628.179,468.406,658.705,453.5z"/>
<circle fill="#282522" stroke="#282522" stroke-width="6" stroke-miterlimit="10" cx="617.816" cy="550.115" r="32.248"/>
<path fill="#282522" stroke="#282522" stroke-width="4" stroke-linecap="round" stroke-miterlimit="10" d="M597.047,558.088
	c-4.388-11.471,1.338-24.33,12.8-28.743"/>
<circle fill="#282522" stroke="#282522" stroke-miterlimit="10" cx="689.375" cy="517.643" r="32.248"/>
<circle fill="#282522" stroke="#282522" stroke-width="6" stroke-miterlimit="10" cx="689.375" cy="517.643" r="32.248"/>
<path fill="#282522" stroke="#282522" stroke-width="4" stroke-linecap="round" stroke-miterlimit="10" d="M668.605,525.617
	c-4.388-11.472,1.338-24.33,12.8-28.744"/>
<circle fill="#282522" stroke="#282522" stroke-miterlimit="10" cx="760.332" cy="485.171" r="32.248"/>
<circle fill="#282522" stroke="#282522" stroke-width="6" stroke-miterlimit="10" cx="760.332" cy="485.171" r="32.248"/>
<path fill="#282522" stroke="#282522" stroke-width="4" stroke-linecap="round" stroke-miterlimit="10" d="M739.562,493.145
	c-4.388-11.472,1.338-24.33,12.8-28.744"/>
<g>
	<path fill="#282522" d="M619.042,608.555c-1.764,0-3.568-0.077-5.432-0.236c-17.955-1.534-35.226-11.638-46.198-27.026
		c-10.68-14.979-14.159-32.764-9.798-50.079c11.407-45.295,74.452-76.087,101.374-89.237c18.238-8.908,40.2-16.126,60.254-19.803
		c25.961-4.76,48.119-3.882,65.858,2.612c16.617,6.083,29.262,19.86,34.689,37.801c5.699,18.838,2.708,38.81-8.001,53.426
		c-15.073,20.572-43.677,30.646-68.912,39.535c-7.496,2.64-14.576,5.134-20.864,7.752c-23.698,9.873-40.433,19.423-53.879,27.097
		C649.328,601.127,636.312,608.555,619.042,608.555z M750.037,425.242c-29.501,0-62.931,9.678-88.416,22.125
		c-26.172,12.783-87.462,42.718-98.188,85.31c-3.925,15.582-0.776,31.609,8.865,45.131c9.964,13.975,25.599,23.146,41.824,24.531
		c18.24,1.562,30.588-5.486,51.037-17.155c13.591-7.756,30.505-17.408,54.547-27.425c6.442-2.683,13.6-5.204,21.178-7.873
		c24.415-8.599,52.089-18.346,66.065-37.422l2.42,1.773l-2.42-1.773c9.457-12.907,12.177-31.354,7.098-48.142
		c-4.877-16.118-16.179-28.476-31.009-33.904C773.197,426.817,761.937,425.242,750.037,425.242z"/>
</g>
<circle fill="#EE4823" cx="618.476" cy="543.544" r="32.248"/>
<path fill="#DE1E26" d="M648.581,531.987c-1.961-5.127-5.204-9.665-9.419-13.18c9.503,15.063,4.997,34.977-10.066,44.481
	c-11.842,7.471-27.152,6.447-37.894-2.535c9.503,15.063,29.417,19.571,44.48,10.068
	C648.696,562.611,654.096,546.351,648.581,531.987z"/>
<g>
	<path fill="#282522" d="M618.476,578.792c-19.436,0-35.247-15.812-35.247-35.248s15.812-35.248,35.247-35.248
		s35.248,15.812,35.248,35.248S637.911,578.792,618.476,578.792z M618.476,514.296c-16.127,0-29.247,13.121-29.247,29.248
		s13.12,29.248,29.247,29.248s29.248-13.121,29.248-29.248S634.603,514.296,618.476,514.296z"/>
</g>
<g>
	<path fill="#282522" d="M597.706,553.519c-0.805,0-1.563-0.49-1.868-1.286c-4.771-12.475,1.486-26.526,13.949-31.324
		c1.028-0.396,2.188,0.117,2.585,1.147c0.397,1.031-0.117,2.188-1.147,2.585c-10.409,4.008-15.636,15.744-11.65,26.162
		c0.395,1.032-0.122,2.188-1.153,2.583C598.186,553.476,597.944,553.519,597.706,553.519z"/>
</g>
<circle fill="#EE4823" cx="687.592" cy="510.432" r="32.248"/>
<path fill="#DE1E26" d="M717.7,498.875c-1.961-5.126-5.204-9.664-9.419-13.18c9.504,15.062,4.999,34.977-10.063,44.481
	c-11.843,7.473-27.156,6.449-37.898-2.535c9.506,15.062,29.422,19.566,44.484,10.06C717.812,529.492,723.212,513.237,717.7,498.875z
	"/>
<g>
	<path fill="#282522" d="M687.592,545.68c-19.436,0-35.248-15.812-35.248-35.248s15.812-35.248,35.248-35.248
		s35.248,15.812,35.248,35.248S707.027,545.68,687.592,545.68z M687.592,481.184c-16.127,0-29.248,13.121-29.248,29.248
		s13.121,29.248,29.248,29.248s29.248-13.121,29.248-29.248S703.719,481.184,687.592,481.184z"/>
</g>
<g>
	<path fill="#282522" d="M666.823,520.406c-0.805,0-1.563-0.49-1.868-1.286c-4.771-12.475,1.485-26.526,13.949-31.325
		c1.029-0.395,2.188,0.117,2.585,1.148c0.397,1.031-0.117,2.188-1.147,2.585c-10.41,4.007-15.637,15.744-11.65,26.162
		c0.395,1.032-0.122,2.188-1.153,2.583C667.303,520.363,667.062,520.406,666.823,520.406z"/>
</g>
<path fill="#EE4823" d="M615.792,408.546l46.181-18.442c4.618-1.844,9.856,0.404,11.7,5.022l0,0c1.844,4.618-0.404,9.856-5.022,11.7
	l-46.181,18.442c-4.618,1.844-9.856-0.404-11.7-5.022l0,0C608.926,415.628,611.175,410.39,615.792,408.546z"/>
<g>
	<path fill="#282522" d="M619.129,428.917c-1.606,0-3.212-0.327-4.732-0.98c-2.946-1.265-5.224-3.601-6.413-6.579
		c-2.454-6.147,0.549-13.145,6.695-15.6l46.181-18.443c6.146-2.455,13.146,0.55,15.601,6.697c2.454,6.146-0.549,13.145-6.695,15.6
		l-46.181,18.442C622.143,428.63,620.636,428.917,619.129,428.917z M665.304,392.462c-0.739,0-1.49,0.138-2.219,0.428l-46.18,18.443
		c-3.073,1.227-4.575,4.726-3.348,7.8c0.595,1.489,1.733,2.657,3.206,3.289c1.475,0.633,3.105,0.653,4.594,0.059l46.181-18.442
		c3.073-1.228,4.575-4.727,3.348-7.8C669.949,393.893,667.688,392.462,665.304,392.462z"/>
</g>
<path fill="#F48551" d="M612.324,394.469c-1.548,0.619-3.023,0.385-3.483-0.765l1.359-0.543c0.269,0.511,0.886,0.762,1.765,0.411
	s1.232-0.959,1.012-1.511c-0.628-1.571-4.33,1.092-5.287-1.3c-0.457-1.141,0.339-2.283,1.92-2.916
	c1.481-0.592,2.79-0.356,3.347,0.712l-1.4,0.561c-0.22-0.421-0.837-0.641-1.647-0.339c-0.742,0.275-1.191,0.8-0.94,1.428
	c0.587,1.468,4.319-1.087,5.269,1.288C614.624,392.466,614.051,393.779,612.324,394.469z"/>
<path fill="#F48551" d="M614.593,385.949l5.4-2.16l0.347,0.869l-2.06,0.824l2.251,5.629l-1.269,0.508l-2.251-5.629l-2.071,0.828
	L614.593,385.949z"/>
<path fill="#F48551" d="M629.126,386.135l-3.241,1.3l-0.025,1.551l-1.325,0.53l0.17-7.617l1.47-0.588l5.375,5.4l-1.336,0.535
	L629.126,386.135z M625.955,382.89l-0.061,3.528l2.528-1.011L625.955,382.89z"/>
<path fill="#F48551" d="M633.945,378.21c1.837-0.735,3.094-0.207,3.517,0.849c0.355,1.001-0.096,2.109-1.049,2.578l2.992,1.927
	l-1.514,0.606l-2.821-1.887l-0.969,0.387l1.039,2.6l-1.269,0.507l-2.6-6.5L633.945,378.21z M634.293,379.079l-1.4,0.562l0.871,2.178
	l1.4-0.561c0.991-0.4,1.253-1.032,1-1.678S635.284,378.683,634.293,379.079L634.293,379.079z"/>
<path fill="#F48551" d="M639.027,376.177l5.4-2.159l0.348,0.869l-2.06,0.824l2.251,5.629l-1.27,0.508l-2.251-5.629l-2.071,0.828
	L639.027,376.177z"/>
<path fill="#EF4923" d="M500,315.714L500,315.714c-48.4,0-98.64,5.671-145.255,17.482c8.1,2.824,16.9,5.384,26.271,7.65
	c39.121-8.261,79-12.407,118.984-12.37l0,0c34.098-0.011,68.13,2.991,101.7,8.97c8.442-2.406,16.743-5.283,24.864-8.618
	C584.949,320.053,542.53,315.658,500,315.714z"/>
<path fill="#F48551" d="M500,321.984L500,321.984c38.874-0.029,77.663,3.634,115.845,10.939c3.719-1.312,7.3-2.677,10.717-4.1
	c-41.614-8.773-84.033-13.167-126.562-13.109l0,0c-48.4,0-98.64,5.671-145.255,17.482c3.587,1.25,7.317,2.445,11.165,3.589
	C409.916,326.874,454.892,321.91,500,321.984z"/>
<g>
	<path fill="#282522" d="M380.971,343.922l-0.66-0.16c-9.469-2.29-18.403-4.892-26.554-7.734l-9.43-3.288l9.681-2.453
		c45.375-11.497,95.858-17.574,145.992-17.574h-0.004c42.633-0.054,85.448,4.377,127.188,13.179l9.533,2.01l-9.013,3.701
		c-8.196,3.365-16.669,6.302-25.182,8.728l-0.666,0.19l-0.683-0.122c-33.246-5.921-67.229-8.923-100.993-8.923
		c-0.236,0-0.468,0-0.705,0c-39.527,0-79.169,4.139-117.84,12.305L380.971,343.922z M365.76,333.614
		c4.894,1.475,10.01,2.865,15.303,4.157c38.864-8.158,78.699-12.294,118.408-12.294c0.239,0,0.473,0.001,0.713,0
		c33.884,0,67.979,2.992,101.356,8.895c4.809-1.386,9.6-2.938,14.333-4.641c-37.868-7.313-76.524-11.016-115.075-11.016
		c-0.265,0-0.529,0-0.795,0H500C454.113,318.714,407.943,323.852,365.76,333.614z"/>
</g>
<circle fill="#EE4823" cx="761.059" cy="475.711" r="32.248"/>
<path fill="#DE1E26" d="M791.164,464.154c-1.961-5.126-5.204-9.664-9.418-13.18c9.504,15.062,4.999,34.977-10.063,44.481
	c-11.843,7.473-27.156,6.449-37.898-2.535c9.503,15.063,29.417,19.571,44.48,10.068C791.279,494.778,796.68,478.518,791.164,464.154
	z"/>
<g>
	<path fill="#282522" d="M761.059,510.959c-19.436,0-35.248-15.812-35.248-35.248s15.812-35.248,35.248-35.248
		s35.248,15.812,35.248,35.248S780.494,510.959,761.059,510.959z M761.059,446.463c-16.127,0-29.248,13.121-29.248,29.248
		s13.121,29.248,29.248,29.248s29.248-13.121,29.248-29.248S777.186,446.463,761.059,446.463z"/>
</g>
<g>
	<path fill="#282522" d="M740.289,485.686c-0.805,0-1.563-0.489-1.868-1.286c-4.771-12.474,1.486-26.525,13.949-31.324
		c1.03-0.397,2.188,0.116,2.585,1.147c0.397,1.031-0.117,2.188-1.147,2.585c-10.409,4.008-15.636,15.744-11.65,26.163
		c0.395,1.032-0.122,2.188-1.153,2.583C740.769,485.643,740.527,485.686,740.289,485.686z"/>
</g>
<path fill="#282522" d="M488.958,312.971h-10v-119.4c-0.012-10.93-8.87-19.788-19.8-19.8h-187.5
	c-16.458-0.003-29.798-13.347-29.795-29.805c0.003-16.454,13.341-29.792,29.795-29.795h397.5
	c10.935-0.002,19.799-8.868,19.797-19.803c-0.002-10.933-8.864-19.796-19.797-19.797h-160.5c-16.45-0.019-29.781-13.35-29.8-29.8V0
	h10v44.771c0.013,10.93,8.87,19.787,19.8,19.8h160.5c16.458,0.003,29.798,13.347,29.795,29.805
	c-0.003,16.454-13.341,29.792-29.795,29.795h-397.5c-10.935,0.002-19.799,8.868-19.797,19.803
	c0.002,10.933,8.864,19.796,19.797,19.797h187.5c16.451,0.018,29.782,13.349,29.8,29.8V312.971z"/>
<rect x="463.666" y="244.745" fill="#282522" width="39.741" height="10.728"/>
<rect x="457.122" y="254.86" fill="#302E2C" width="52.829" height="10.728"/>
<rect x="463.666" y="264.975" fill="#282522" width="39.741" height="10.728"/>
<rect x="457.122" y="275.089" fill="#302E2C" width="52.829" height="10.728"/>
<rect x="463.666" y="285.204" fill="#282522" width="39.741" height="10.728"/>
<rect x="463.666" y="303.769" fill="#282522" width="39.741" height="10.728"/>
<rect x="457.122" y="295.318" fill="#302E2C" width="52.829" height="10.728"/>
<path fill="#F48551" d="M308.775,416.835l-4.914-9.014c-0.223-0.444-0.764-0.623-1.208-0.4c-0.173,0.087-0.313,0.227-0.4,0.4
	l-4.915,9.014c-0.274,0.484-0.104,1.098,0.381,1.372c0.129,0.073,0.272,0.116,0.419,0.128h9.917c0.547-0.077,0.927-0.583,0.85-1.13
	C308.886,417.074,308.842,416.948,308.775,416.835z"/>
<path fill="#F48551" d="M297.34,596.4l4.914,9.015c0.223,0.444,0.764,0.623,1.208,0.4c0.173-0.087,0.313-0.227,0.4-0.4l4.915-9.015
	c0.274-0.484,0.103-1.099-0.381-1.372c-0.13-0.073-0.275-0.117-0.424-0.128h-9.918c-0.549,0.086-0.924,0.6-0.839,1.149
	C297.235,596.173,297.277,596.292,297.34,596.4z"/>
<path fill="#F48551" d="M392.847,512.337l9.014-4.914c0.444-0.223,0.623-0.764,0.4-1.208c-0.087-0.173-0.227-0.313-0.4-0.4
	l-9.014-4.914c-0.483-0.274-1.097-0.105-1.372,0.378c-0.074,0.129-0.117,0.274-0.128,0.422v9.918
	c0.078,0.547,0.585,0.926,1.132,0.848C392.609,512.448,392.734,512.404,392.847,512.337z"/>
<path fill="#F48551" d="M213.278,500.9l-9.015,4.914c-0.444,0.223-0.623,0.764-0.4,1.208c0.087,0.173,0.227,0.313,0.4,0.4
	l9.015,4.915c0.484,0.274,1.098,0.103,1.372-0.381c0.074-0.13,0.117-0.275,0.128-0.424v-9.917c-0.08-0.546-0.588-0.925-1.134-0.845
	C213.514,500.789,213.39,500.833,213.278,500.9z"/>
<g>
	<path fill="#F48551" d="M636.894,483.039c-0.907,0-1.804-0.41-2.394-1.189c-1-1.32-0.741-3.2,0.578-4.2
		c0.872-0.661,21.877-16.354,66.677-29.898c1.584-0.481,3.26,0.417,3.74,2.003c0.479,1.586-0.418,3.26-2.004,3.74
		c-43.649,13.196-64.584,28.782-64.79,28.938C638.16,482.841,637.524,483.039,636.894,483.039z"/>
</g>
<path fill="#F48551" d="M452.177,491.617h11.649c3.502,0.044,6.377-2.76,6.421-6.262c0.044-3.502-2.76-6.377-6.262-6.421
	c-0.053-0.001-0.105-0.001-0.158,0l-3.286-0.044c-1.887,0.036-3.445-1.465-3.481-3.352c-0.036-1.887,1.465-3.445,3.352-3.481
	c0.039-0.001,0.077-0.001,0.116,0h11.625v1.959h-11.619c-0.814,0-1.473,0.659-1.473,1.473c0,0.814,0.66,1.473,1.473,1.473l0,0
	l3.288-0.017c4.602,0,8.332,3.73,8.332,8.332s-3.73,8.332-8.332,8.332l-11.639,0.012L452.177,491.617z"/>
<path fill="#F48551" d="M482.977,493.588c-3.829,0.002-6.938-3.096-6.948-6.925v-12.584c0.012-3.828,3.12-6.923,6.948-6.92h12.492
	v1.966h-12.492c-2.733-0.018-4.965,2.18-4.99,4.913v12.627c0.006,2.752,2.238,4.979,4.99,4.979h12.434v1.955L482.977,493.588z
	 M452.177,488.688v-1.947l11.623-0.009c0.804,0.021,1.473-0.614,1.493-1.418c0.021-0.804-0.614-1.473-1.418-1.493
	c-0.025-0.001-0.051-0.001-0.076,0l-3.264-0.005c-4.6,0.05-8.369-3.638-8.419-8.238c-0.05-4.6,3.638-8.369,8.238-8.419
	c0.06-0.001,0.121-0.001,0.181,0h11.619v1.974H460.53c-3.504-0.005-6.348,2.832-6.353,6.335s2.832,6.348,6.335,6.353
	c0.006,0,0.011,0,0.017,0l3.288,0.036c1.885-0.003,3.416,1.523,3.419,3.409c0.003,1.885-1.523,3.416-3.409,3.419l0,0
	L452.177,488.688z"/>
<path fill="#F48551" d="M505.914,493.588c-3.837,0.01-6.958-3.088-6.976-6.925v-12.584c0.012-3.827,3.119-6.923,6.946-6.92h12.1
	v1.964h-12.07c-2.737,0.002-4.957,2.219-4.961,4.956v12.584c0.004,2.744,2.228,4.967,4.972,4.969h10.089V478.9h-7.262v-1.954h9.23
	v16.649L505.914,493.588z M482.977,488.68c-1.117,0.002-2.024-0.9-2.028-2.017v-4.824H492.6v1.961h-9.711l0.013,1.013
	c-0.004,1.058,0.851,1.919,1.909,1.923c0.01,0,0.02,0,0.03,0h10.572v1.938L482.977,488.68z M480.95,478.9v-4.818
	c-0.001-1.119,0.904-2.028,2.023-2.031h12.492v1.972h-10.62c-1.052-0.022-1.922,0.813-1.945,1.865c0,0.015,0,0.03,0,0.045
	l-0.013,1.013h9.713v1.954H480.95z"/>
<path fill="#F48551" d="M524.637,493.59l7.572-22.278c0.043-0.114,0.153-0.188,0.274-0.187c0.181,0.046,0.246,0.111,0.276,0.2
	l5.893,17.41h-6.892l0.006-2.408h3.5l-2.785-8.278l-5.273,15.545L524.637,493.59z M505.914,488.7
	c-1.123-0.004-2.031-0.917-2.029-2.04v-12.581c0.001-1.12,0.909-2.028,2.029-2.03h12.069V474h-10.214
	c-1.062-0.008-1.929,0.847-1.937,1.909c0,0.013,0,0.025,0,0.038l0.021,8.858c0.001,1.064,0.862,1.927,1.926,1.929h3.341l-0.02-2.934
	h-2.337v-1.967h4.315v6.867H505.914z"/>
<path fill="#F48551" d="M519.445,493.591l7.978-23.4c1.05-2.791,4.164-4.203,6.955-3.153c1.448,0.545,2.593,1.685,3.145,3.13
	l7.915,23.42h-13.665v-1.958h10.949l-7.263-21.4c-0.49-1.22-1.67-2.022-2.985-2.029c-1.295-0.003-2.464,0.775-2.961,1.971
	l-7.977,23.415L519.445,493.591z"/>
</svg>